<svg id="svg" version="1.1" xmlns="http://www.w3.org/2000/svg" xmlns:xlink="http://www.w3.org/1999/xlink" width="400" height="400" viewBox="0, 0, 400,400"><g id="svgg"><path id="path1" d="M182.949 135.790 C 182.700 136.438,185.231 148.800,185.612 148.800 C 185.908 148.800,190.085 137.152,189.867 136.934 C 189.780 136.847,188.785 136.666,187.657 136.532 C 186.529 136.399,185.403 136.044,185.154 135.745 C 184.555 135.023,183.233 135.049,182.949 135.790 M177.600 140.099 C 177.600 141.051,181.252 141.687,181.783 140.828 C 182.110 140.298,181.530 140.030,179.433 139.743 C 177.950 139.539,177.600 139.607,177.600 140.099 M179.663 142.800 C 177.910 143.212,177.223 143.881,178.177 144.247 C 179.196 144.638,181.800 143.909,181.800 143.233 C 181.800 142.508,181.322 142.411,179.663 142.800 M180.693 145.814 C 179.370 146.714,178.672 148.000,179.507 148.000 C 180.193 148.000,182.800 145.930,182.800 145.386 C 182.800 144.568,182.410 144.648,180.693 145.814 M217.391 211.888 L 215.782 212.037 215.713 221.119 C 215.654 228.991,215.041 238.704,214.149 245.900 L 213.889 248.000 216.344 248.000 L 218.800 248.000 218.800 239.264 C 218.800 229.187,219.206 218.400,219.585 218.400 C 219.912 218.400,226.685 237.904,228.449 243.923 C 229.909 248.906,229.771 248.793,233.642 248.153 C 235.072 247.916,235.092 247.885,236.164 244.257 C 239.216 233.932,244.181 218.823,244.434 219.093 C 244.987 219.682,245.600 230.179,245.600 239.057 L 245.600 248.000 248.800 248.000 C 250.837 248.000,252.000 247.842,252.000 247.565 C 252.000 247.326,251.738 244.941,251.418 242.265 C 250.716 236.401,250.116 227.836,249.750 218.458 L 249.479 211.515 246.039 211.798 C 241.903 212.139,242.702 211.162,240.766 218.233 C 239.868 221.515,238.139 227.350,236.926 231.200 C 235.712 235.050,234.365 239.342,233.932 240.739 C 233.498 242.135,233.059 243.192,232.955 243.088 C 232.525 242.658,222.800 213.404,222.800 212.540 C 222.800 211.540,222.091 211.454,217.391 211.888 M355.053 211.957 L 353.507 212.200 352.537 215.600 C 348.407 230.080,343.613 243.891,341.776 246.598 L 340.824 248.000 344.157 248.000 L 347.490 248.000 347.750 245.700 C 347.894 244.435,348.398 241.645,348.872 239.500 L 349.732 235.600 355.645 235.600 L 361.558 235.600 363.179 240.583 C 364.070 243.324,364.800 246.114,364.800 246.783 L 364.800 248.000 369.047 248.000 L 373.295 248.000 372.307 246.700 C 369.965 243.620,361.888 222.392,359.597 213.300 C 359.129 211.440,358.855 211.359,355.053 211.957 M26.806 213.700 C 26.815 216.298,27.008 216.425,30.006 215.805 C 31.433 215.510,33.648 215.141,34.928 214.985 L 37.256 214.701 37.128 231.351 L 37.000 248.000 40.147 248.000 L 43.293 248.000 43.025 246.900 C 42.619 245.236,42.258 221.317,42.586 217.815 L 42.873 214.752 45.136 215.013 C 46.381 215.156,48.551 215.531,49.959 215.845 C 52.967 216.516,52.642 216.703,52.992 214.100 L 53.275 212.000 40.038 212.000 L 26.800 212.000 26.806 213.700 M58.600 230.000 L 58.600 248.000 61.752 248.000 L 64.905 248.000 64.648 246.500 C 64.507 245.675,64.275 241.805,64.133 237.900 L 63.874 230.800 72.137 230.800 L 80.400 230.800 80.371 237.300 C 80.355 240.875,80.207 244.745,80.043 245.900 L 79.743 248.000 83.053 248.000 L 86.362 248.000 86.081 245.900 C 85.714 243.160,85.716 216.829,86.083 214.084 L 86.366 211.968 83.083 212.084 C 80.401 212.179,79.828 212.310,79.951 212.800 C 80.035 213.130,80.194 216.595,80.305 220.500 L 80.508 227.600 72.191 227.600 L 63.875 227.600 64.140 221.300 C 64.286 217.835,64.518 214.325,64.655 213.500 L 64.905 212.000 61.752 212.000 L 58.600 212.000 58.600 230.000 M97.922 212.211 C 97.806 212.327,97.859 213.182,98.038 214.111 C 98.465 216.317,98.463 244.092,98.036 246.300 L 97.707 248.000 108.421 248.000 L 119.134 248.000 119.575 245.942 C 120.119 243.405,120.249 243.503,117.383 244.270 C 115.821 244.688,113.140 244.923,109.600 244.954 L 104.200 245.000 103.868 238.066 C 103.685 234.252,103.641 231.025,103.771 230.896 C 103.901 230.766,106.435 230.681,109.403 230.707 C 112.372 230.733,114.800 230.697,114.800 230.626 C 114.800 230.556,115.082 229.823,115.427 228.997 L 116.054 227.497 109.936 227.648 C 102.696 227.828,103.391 228.642,103.800 220.464 L 104.089 214.685 109.544 214.939 C 112.545 215.079,115.472 215.302,116.050 215.434 C 117.009 215.653,117.154 215.515,117.726 213.837 L 118.351 212.000 108.242 212.000 C 102.682 212.000,98.038 212.095,97.922 212.211 M139.507 215.000 C 139.997 219.677,139.854 244.796,139.328 246.500 L 138.864 248.000 142.400 248.000 L 145.936 248.000 145.525 246.513 C 145.299 245.695,145.089 242.433,145.057 239.262 L 145.000 233.498 148.941 233.573 C 157.588 233.738,162.668 229.932,163.116 222.954 C 163.639 214.793,159.783 212.272,146.707 212.226 L 139.213 212.200 139.507 215.000 M171.521 214.000 C 172.024 217.245,171.852 245.259,171.321 246.700 L 170.842 248.000 174.379 248.000 L 177.916 248.000 177.567 246.500 C 177.376 245.675,177.215 241.985,177.210 238.300 C 177.197 229.374,177.069 229.348,184.427 239.799 L 190.200 247.999 194.389 247.999 C 198.414 248.000,198.539 247.974,197.589 247.340 C 195.427 245.898,184.000 232.884,184.000 231.864 C 184.000 231.771,184.855 231.484,185.900 231.227 C 195.743 228.804,197.335 215.668,188.116 212.948 C 186.328 212.421,184.139 212.258,178.521 212.233 L 171.243 212.200 171.521 214.000 M261.905 215.100 C 262.288 219.122,262.287 240.882,261.905 244.907 L 261.609 248.013 272.301 247.907 L 282.993 247.800 283.343 245.880 C 283.779 243.493,283.847 243.544,281.199 244.263 C 279.824 244.636,276.903 244.886,273.400 244.930 L 267.800 245.000 267.691 237.900 L 267.582 230.800 269.291 230.722 C 270.231 230.680,272.654 230.700,274.676 230.768 L 278.351 230.891 278.976 229.396 C 279.319 228.575,279.600 227.807,279.600 227.690 C 279.600 227.573,276.896 227.599,273.590 227.748 L 267.580 228.019 267.690 221.510 L 267.800 215.000 272.000 215.000 C 274.310 215.000,277.239 215.137,278.508 215.304 C 281.017 215.635,280.893 215.727,281.774 212.900 L 282.054 212.000 271.832 212.000 L 261.610 212.000 261.905 215.100 M291.495 215.800 C 291.937 221.018,291.786 244.284,291.297 246.300 L 290.885 248.000 298.823 248.000 C 313.851 248.000,318.789 245.002,321.007 234.534 C 324.355 218.734,317.297 211.756,298.295 212.079 L 291.190 212.200 291.495 215.800 M330.304 215.700 C 330.687 220.486,330.687 240.882,330.305 244.900 L 330.010 248.000 333.207 248.000 L 336.405 248.000 336.102 244.500 C 335.712 239.978,335.711 221.401,336.102 216.100 L 336.404 212.000 333.206 212.000 L 330.009 212.000 330.304 215.700 M154.404 215.700 C 156.616 217.205,157.282 218.447,157.495 221.463 C 157.948 227.862,154.885 231.569,149.126 231.591 C 144.468 231.609,144.190 230.713,145.060 218.461 L 145.320 214.800 149.201 214.800 C 152.567 214.800,153.257 214.919,154.404 215.700 M185.857 215.454 C 188.266 216.597,189.363 220.385,188.422 224.309 C 187.572 227.850,184.872 229.600,180.256 229.600 C 177.049 229.600,177.200 229.977,177.200 221.957 L 177.200 214.800 180.840 214.800 C 183.379 214.800,184.895 214.998,185.857 215.454 M308.169 215.771 C 313.336 217.326,315.395 220.704,315.868 228.400 C 316.370 236.583,314.357 242.596,310.689 243.867 C 308.488 244.630,298.023 244.957,297.351 244.284 C 296.941 243.874,296.616 220.336,296.980 217.423 L 297.258 215.200 301.765 215.200 C 304.516 215.200,307.012 215.422,308.169 215.771 M358.134 224.235 C 359.380 228.435,360.400 232.080,360.400 232.335 C 360.400 232.664,358.923 232.800,355.373 232.800 C 350.768 232.800,350.365 232.741,350.566 232.100 C 350.739 231.549,354.082 220.163,355.096 216.674 C 355.446 215.468,355.774 216.284,358.134 224.235 M279.934 262.398 C 279.834 262.699,280.175 264.112,280.693 265.538 C 281.211 266.965,281.543 268.373,281.430 268.666 C 281.292 269.027,281.562 269.200,282.262 269.200 C 283.064 269.200,283.201 269.083,282.868 268.682 C 282.632 268.397,281.916 266.744,281.277 265.008 C 280.639 263.272,280.034 262.097,279.934 262.398 M70.812 262.700 C 70.819 262.865,71.268 263.720,71.810 264.600 C 72.864 266.310,73.123 268.603,72.300 268.935 C 72.025 269.046,72.430 269.137,73.200 269.137 C 73.970 269.137,74.375 269.046,74.100 268.935 C 73.825 268.824,73.600 268.141,73.600 267.417 C 73.600 266.066,71.821 262.400,71.166 262.400 C 70.965 262.400,70.806 262.535,70.812 262.700 M82.892 262.668 C 80.036 263.817,81.544 269.306,84.669 269.140 L 85.800 269.080 84.742 268.918 C 82.434 268.563,81.335 265.040,82.970 263.234 C 83.751 262.370,83.744 262.325,82.892 262.668 M85.840 262.706 C 87.193 263.609,87.530 265.801,86.595 267.609 C 86.105 268.557,86.095 268.738,86.541 268.567 C 88.604 267.775,88.017 262.378,85.871 262.406 C 85.537 262.410,85.528 262.498,85.840 262.706 M94.800 265.386 C 94.800 268.612,95.223 269.256,97.274 269.154 C 98.093 269.113,98.107 269.084,97.400 268.911 C 95.868 268.534,95.600 267.975,95.600 265.151 C 95.600 263.584,95.428 262.400,95.200 262.400 C 94.969 262.400,94.800 263.662,94.800 265.386 M99.532 265.351 C 99.443 267.347,99.562 268.452,99.900 268.766 C 100.297 269.136,100.400 268.530,100.400 265.816 C 100.400 261.633,99.714 261.266,99.532 265.351 M107.934 265.455 C 108.031 267.685,107.923 268.603,107.534 268.850 C 107.187 269.069,107.491 269.179,108.400 269.162 C 109.170 269.148,109.575 269.046,109.300 268.935 C 108.959 268.798,108.800 267.726,108.800 265.567 C 108.800 263.300,108.658 262.400,108.300 262.399 C 107.932 262.398,107.835 263.205,107.934 265.455 M110.720 262.880 C 111.402 263.562,111.315 265.181,110.582 265.462 C 110.062 265.662,110.093 265.790,110.782 266.272 C 111.291 266.629,111.600 267.290,111.600 268.023 C 111.600 268.986,111.763 269.194,112.500 269.168 C 112.995 269.151,113.175 269.046,112.900 268.935 C 112.625 268.824,112.400 268.388,112.400 267.967 C 112.400 267.545,112.052 266.852,111.627 266.427 C 110.964 265.764,110.936 265.585,111.427 265.178 C 112.421 264.353,111.868 262.400,110.640 262.400 C 110.418 262.400,110.453 262.613,110.720 262.880 M126.416 263.171 C 125.813 264.297,126.295 265.130,128.074 266.038 C 130.224 267.135,130.146 268.600,127.938 268.600 C 127.133 268.600,126.559 268.735,126.661 268.900 C 126.764 269.065,127.298 269.200,127.850 269.200 C 130.526 269.200,131.385 266.909,129.170 265.681 C 126.709 264.318,126.551 264.130,127.103 263.224 C 127.382 262.768,127.433 262.400,127.217 262.400 C 127.003 262.400,126.642 262.747,126.416 263.171 M139.200 265.567 C 139.200 267.726,139.041 268.798,138.700 268.935 C 138.425 269.046,138.830 269.137,139.600 269.137 C 140.370 269.137,140.775 269.046,140.500 268.935 C 140.159 268.798,140.000 267.726,140.000 265.567 C 140.000 263.722,139.833 262.400,139.600 262.400 C 139.367 262.400,139.200 263.722,139.200 265.567 M149.229 263.454 C 147.927 265.109,148.491 268.800,150.045 268.800 C 150.265 268.800,150.165 268.400,149.823 267.911 C 148.934 266.642,149.030 264.333,150.016 263.275 C 150.464 262.794,150.657 262.400,150.445 262.400 C 150.232 262.400,149.685 262.874,149.229 263.454 M153.348 263.247 C 154.196 264.458,154.191 267.126,153.338 268.069 C 152.974 268.471,152.856 268.800,153.076 268.800 C 155.146 268.800,155.512 263.823,153.521 262.758 C 152.724 262.331,152.718 262.348,153.348 263.247 M161.929 265.801 L 161.800 269.202 162.800 269.169 C 163.350 269.151,163.575 269.046,163.300 268.935 C 162.959 268.798,162.800 267.726,162.800 265.567 C 162.800 261.319,162.093 261.510,161.929 265.801 M164.700 262.841 C 165.424 263.592,165.314 265.094,164.500 265.568 C 164.115 265.792,163.997 265.981,164.238 265.988 C 165.830 266.032,166.542 262.741,165.000 262.465 C 164.353 262.350,164.296 262.422,164.700 262.841 M173.762 264.171 C 174.859 266.043,175.147 268.593,174.300 268.935 C 174.025 269.046,174.430 269.148,175.200 269.162 C 176.136 269.179,176.419 269.073,176.053 268.841 C 175.691 268.612,175.559 267.951,175.661 266.881 C 175.745 265.994,175.702 265.337,175.563 265.423 C 175.425 265.508,174.989 264.863,174.595 263.989 C 174.201 263.115,173.619 262.400,173.301 262.400 C 172.868 262.400,172.982 262.841,173.762 264.171 M198.429 263.454 C 197.201 265.015,197.568 267.995,199.059 268.567 C 199.505 268.738,199.495 268.557,199.005 267.609 C 198.176 266.007,198.247 264.703,199.229 263.454 C 199.685 262.874,199.878 262.400,199.658 262.400 C 199.438 262.400,198.885 262.874,198.429 263.454 M202.629 263.232 C 204.294 265.072,203.210 268.556,200.858 268.918 L 199.800 269.080 200.878 269.140 C 202.626 269.237,204.182 267.605,204.182 265.674 C 204.182 264.109,203.187 262.400,202.276 262.400 C 202.056 262.400,202.215 262.774,202.629 263.232 M211.125 265.299 C 211.258 268.374,211.752 269.225,213.376 269.175 C 214.174 269.150,214.172 269.138,213.326 268.797 C 211.954 268.244,211.515 267.017,211.820 264.578 C 212.033 262.872,211.974 262.400,211.546 262.399 C 211.123 262.398,211.028 263.053,211.125 265.299 M216.000 265.200 C 216.000 266.740,215.987 268.130,215.970 268.290 C 215.953 268.450,216.134 268.645,216.370 268.723 C 216.653 268.818,216.800 267.761,216.800 265.633 C 216.800 263.744,216.634 262.400,216.400 262.400 C 216.171 262.400,216.000 263.600,216.000 265.200 M224.338 265.448 C 224.453 267.720,224.353 268.584,223.946 268.842 C 223.563 269.085,223.732 269.190,224.514 269.194 C 225.515 269.199,225.583 269.116,225.188 268.378 C 224.946 267.926,224.780 267.161,224.819 266.678 C 224.968 264.800,224.785 262.400,224.492 262.400 C 224.323 262.400,224.254 263.772,224.338 265.448 M227.002 263.060 C 227.365 263.422,227.575 264.052,227.469 264.460 C 227.203 265.474,227.882 265.401,228.206 264.381 C 228.497 263.464,227.807 262.400,226.922 262.400 C 226.449 262.400,226.463 262.520,227.002 263.060 M242.880 262.880 C 241.783 263.977,242.584 265.326,244.927 266.327 C 246.569 267.027,246.295 268.552,244.497 268.726 C 243.445 268.827,243.121 268.672,242.822 267.926 C 242.462 267.027,242.450 267.025,242.425 267.857 C 242.382 269.338,244.990 269.737,246.173 268.430 C 247.188 267.308,246.805 266.314,244.995 265.367 C 243.732 264.707,243.403 264.311,243.416 263.467 C 243.424 262.880,243.415 262.400,243.396 262.400 C 243.376 262.400,243.144 262.616,242.880 262.880 M255.534 265.218 C 255.619 267.017,255.492 268.248,255.185 268.619 C 254.778 269.108,254.915 269.195,256.051 269.168 C 256.793 269.151,257.175 269.046,256.900 268.935 C 256.559 268.798,256.400 267.726,256.400 265.567 C 256.400 263.300,256.258 262.400,255.900 262.399 C 255.535 262.398,255.436 263.157,255.534 265.218 M265.934 265.455 C 266.031 267.685,265.923 268.603,265.534 268.850 C 265.165 269.083,265.331 269.190,266.068 269.194 C 267.077 269.200,267.117 269.129,266.791 267.900 C 266.602 267.185,266.481 265.655,266.523 264.500 C 266.567 263.315,266.426 262.399,266.200 262.399 C 265.957 262.398,265.852 263.594,265.934 265.455 M268.586 262.940 C 269.073 263.296,269.248 263.774,269.100 264.340 C 268.813 265.437,269.459 265.474,269.806 264.381 C 270.103 263.444,269.401 262.400,268.475 262.400 C 267.960 262.400,267.979 262.497,268.586 262.940 M290.800 265.567 C 290.800 267.726,290.641 268.798,290.300 268.935 C 290.025 269.046,290.430 269.137,291.200 269.137 C 291.970 269.137,292.375 269.046,292.100 268.935 C 291.759 268.798,291.600 267.726,291.600 265.567 C 291.600 263.722,291.433 262.400,291.200 262.400 C 290.967 262.400,290.800 263.722,290.800 265.567 M301.134 265.455 C 301.231 267.685,301.123 268.603,300.734 268.850 C 300.412 269.053,301.273 269.190,302.900 269.194 C 305.449 269.200,305.597 269.150,305.554 268.300 C 305.519 267.623,305.462 267.573,305.324 268.100 C 305.189 268.617,304.730 268.800,303.571 268.800 L 302.000 268.800 301.919 266.700 C 301.875 265.545,301.831 264.105,301.823 263.500 C 301.815 262.895,301.626 262.400,301.404 262.399 C 301.156 262.398,301.051 263.576,301.134 265.455 M312.429 263.454 C 310.458 265.960,312.274 269.305,315.519 269.147 C 316.437 269.103,316.389 269.057,315.200 268.847 C 312.997 268.458,312.023 266.193,313.113 263.991 C 314.011 262.175,313.655 261.895,312.429 263.454 M316.907 262.921 C 317.237 263.185,317.604 263.670,317.722 264.000 C 317.849 264.353,317.950 264.182,317.968 263.585 C 317.992 262.827,317.786 262.554,317.153 262.506 C 316.430 262.452,316.393 262.513,316.907 262.921 M324.812 262.700 C 324.819 262.865,325.268 263.720,325.810 264.600 C 326.864 266.310,327.123 268.603,326.300 268.935 C 326.025 269.046,326.430 269.137,327.200 269.137 C 327.970 269.137,328.375 269.046,328.100 268.935 C 327.825 268.824,327.600 268.141,327.600 267.417 C 327.600 266.066,325.821 262.400,325.166 262.400 C 324.965 262.400,324.806 262.535,324.812 262.700 M227.200 266.400 C 227.640 266.840,228.000 267.650,228.000 268.200 C 228.000 268.806,228.228 269.200,228.579 269.200 C 229.316 269.200,228.634 266.869,227.672 266.100 C 226.673 265.301,226.323 265.523,227.200 266.400 M268.800 266.400 C 269.240 266.840,269.600 267.650,269.600 268.200 C 269.600 268.801,269.829 269.200,270.172 269.200 C 270.939 269.200,270.286 266.809,269.325 266.100 C 268.262 265.316,267.915 265.515,268.800 266.400 M165.408 267.030 C 165.849 269.026,165.954 269.201,166.687 269.168 C 167.106 269.150,167.194 269.054,166.900 268.935 C 166.625 268.824,166.400 268.320,166.400 267.816 C 166.400 267.311,166.119 266.664,165.775 266.379 C 165.225 265.923,165.181 266.002,165.408 267.030 M316.700 266.665 C 316.975 266.776,317.200 267.312,317.200 267.857 C 317.200 269.087,317.837 268.767,318.097 267.406 C 318.263 266.534,318.150 266.404,317.245 266.432 C 316.670 266.449,316.425 266.554,316.700 266.665 M277.273 268.200 C 276.861 269.104,276.902 269.199,277.709 269.194 C 278.322 269.190,278.440 269.086,278.086 268.862 C 277.803 268.682,277.688 268.236,277.829 267.868 C 278.232 266.818,277.779 267.088,277.273 268.200 " stroke="none" fill="#000000" fill-rule="evenodd" data-index="1"></path><path id="path2" d="M209.308 129.986 C 204.912 131.981,204.845 138.148,209.194 140.459 C 214.327 143.187,219.849 137.094,216.790 132.077 C 215.975 130.739,213.319 129.218,211.800 129.218 C 211.360 129.218,210.239 129.563,209.308 129.986 M197.137 136.929 C 196.865 137.221,196.183 137.407,195.621 137.344 C 195.060 137.281,194.915 137.325,195.300 137.444 C 195.685 137.562,196.001 137.780,196.002 137.929 C 196.008 138.744,193.743 144.281,193.218 144.734 C 192.635 145.239,194.759 144.108,196.680 142.891 C 197.165 142.585,197.911 142.445,198.338 142.580 C 199.292 142.883,200.504 141.783,200.237 140.858 C 200.133 140.496,199.855 139.454,199.619 138.541 C 199.384 137.629,198.909 136.774,198.563 136.641 C 197.722 136.318,197.705 136.322,197.137 136.929 M203.531 143.870 C 202.799 144.459,201.364 145.739,200.342 146.714 L 198.485 148.486 196.950 147.443 C 195.183 146.243,191.600 146.792,191.600 148.263 C 191.600 148.364,191.787 148.332,192.016 148.190 C 192.281 148.026,192.346 148.276,192.194 148.880 C 191.997 149.666,192.430 150.284,194.739 152.513 C 198.204 155.858,198.761 155.908,201.782 153.147 C 203.017 152.018,204.093 151.163,204.173 151.247 C 204.253 151.331,205.153 159.118,206.173 168.551 C 208.340 188.603,207.919 187.200,211.765 187.200 C 215.662 187.200,215.427 187.753,216.779 175.389 C 217.895 165.179,217.998 164.629,218.938 163.835 C 220.475 162.534,220.661 161.869,221.615 154.260 C 222.631 146.156,222.472 145.164,219.905 143.599 C 217.510 142.138,215.646 142.515,213.871 144.817 C 211.974 147.277,211.727 147.276,209.839 144.800 C 207.949 142.322,205.842 142.011,203.531 143.870 " stroke="none" fill="#000000" fill-rule="evenodd" data-index="2"></path><path id="path3" d="M193.400 151.600 C 194.483 152.700,195.460 153.600,195.570 153.600 C 195.680 153.600,194.883 152.700,193.800 151.600 C 192.717 150.500,191.740 149.600,191.630 149.600 C 191.520 149.600,192.317 150.500,193.400 151.600 M116.305 211.883 C 116.802 211.979,117.522 211.975,117.905 211.875 C 118.287 211.775,117.880 211.696,117.000 211.701 C 116.120 211.705,115.807 211.787,116.305 211.883 M279.600 211.756 C 279.600 211.842,280.217 211.985,280.972 212.073 C 281.727 212.161,282.256 212.090,282.148 211.916 C 281.955 211.603,279.600 211.455,279.600 211.756 M171.778 230.000 C 171.778 236.930,171.833 239.765,171.899 236.300 C 171.966 232.835,171.966 227.165,171.899 223.700 C 171.833 220.235,171.778 223.070,171.778 230.000 M85.775 230.000 C 85.775 236.050,85.831 238.525,85.899 235.500 C 85.967 232.475,85.967 227.525,85.899 224.500 C 85.831 221.475,85.775 223.950,85.775 230.000 M315.709 230.400 C 315.709 231.390,315.787 231.795,315.882 231.300 C 315.978 230.805,315.978 229.995,315.882 229.500 C 315.787 229.005,315.709 229.410,315.709 230.400 M218.909 230.800 C 218.909 231.790,218.987 232.195,219.082 231.700 C 219.178 231.205,219.178 230.395,219.082 229.900 C 218.987 229.405,218.909 229.810,218.909 230.800 M353.100 232.696 C 354.475 232.774,356.725 232.774,358.100 232.696 C 359.475 232.618,358.350 232.554,355.600 232.554 C 352.850 232.554,351.725 232.618,353.100 232.696 M267.709 243.200 C 267.709 244.190,267.787 244.595,267.882 244.100 C 267.978 243.605,267.978 242.795,267.882 242.300 C 267.787 241.805,267.709 242.210,267.709 243.200 M218.874 245.500 L 218.800 248.000 216.429 248.000 C 214.517 248.000,214.019 247.865,213.852 247.300 C 213.692 246.755,213.664 246.777,213.727 247.400 C 213.797 248.092,214.147 248.216,216.309 248.319 C 219.213 248.458,219.317 248.339,219.097 245.152 L 218.948 243.000 218.874 245.500 M106.700 245.089 C 107.415 245.178,108.585 245.178,109.300 245.089 C 110.015 245.001,109.430 244.928,108.000 244.928 C 106.570 244.928,105.985 245.001,106.700 245.089 M270.291 245.089 C 271.001 245.177,272.261 245.179,273.091 245.092 C 273.921 245.005,273.340 244.933,271.800 244.931 C 270.260 244.929,269.581 245.000,270.291 245.089 M364.561 247.200 C 364.601 248.224,372.320 249.037,373.247 248.115 C 373.421 247.942,371.605 247.856,369.211 247.924 C 364.934 248.047,364.855 248.033,364.690 247.124 C 364.536 246.274,364.526 246.280,364.561 247.200 M43.200 247.533 C 43.200 247.847,42.053 248.027,39.700 248.081 L 36.200 248.163 39.563 248.299 C 42.672 248.424,44.186 248.053,43.473 247.340 C 43.323 247.190,43.200 247.277,43.200 247.533 M198.178 247.564 C 198.409 247.939,197.461 248.022,194.077 247.926 C 191.655 247.857,189.758 247.935,189.861 248.100 C 189.963 248.265,191.916 248.400,194.200 248.400 C 198.073 248.400,199.459 248.054,198.345 247.366 C 198.043 247.180,197.984 247.250,198.178 247.564 M61.400 248.000 L 57.800 248.249 61.276 248.324 C 63.249 248.367,64.860 248.227,65.000 248.000 C 65.136 247.780,65.192 247.634,65.124 247.676 C 65.056 247.717,63.380 247.863,61.400 248.000 M83.000 248.000 L 79.400 248.249 82.876 248.324 C 84.849 248.367,86.460 248.227,86.600 248.000 C 86.736 247.780,86.792 247.634,86.724 247.676 C 86.656 247.717,84.980 247.863,83.000 248.000 M108.400 248.000 L 97.400 248.219 108.276 248.310 C 115.195 248.367,119.243 248.254,119.400 248.000 C 119.536 247.780,119.592 247.641,119.524 247.690 C 119.456 247.740,114.450 247.879,108.400 248.000 M140.500 248.294 C 141.545 248.376,143.255 248.376,144.300 248.294 C 145.345 248.212,144.490 248.144,142.400 248.144 C 140.310 248.144,139.455 248.212,140.500 248.294 M172.500 248.294 C 173.545 248.376,175.255 248.376,176.300 248.294 C 177.345 248.212,176.490 248.144,174.400 248.144 C 172.310 248.144,171.455 248.212,172.500 248.294 M247.312 248.295 C 248.364 248.377,249.984 248.376,250.912 248.292 C 251.840 248.208,250.980 248.141,249.000 248.142 C 247.020 248.143,246.260 248.212,247.312 248.295 M266.724 248.299 C 269.873 248.367,274.913 248.367,277.924 248.299 C 280.936 248.231,278.360 248.176,272.200 248.176 C 266.040 248.176,263.576 248.232,266.724 248.299 M294.921 248.298 C 297.077 248.371,300.497 248.370,302.521 248.298 C 304.544 248.225,302.780 248.166,298.600 248.167 C 294.420 248.167,292.764 248.226,294.921 248.298 M331.300 248.294 C 332.345 248.376,334.055 248.376,335.100 248.294 C 336.145 248.212,335.290 248.144,333.200 248.144 C 331.110 248.144,330.255 248.212,331.300 248.294 M342.500 248.294 C 343.545 248.376,345.255 248.376,346.300 248.294 C 347.345 248.212,346.490 248.144,344.400 248.144 C 342.310 248.144,341.455 248.212,342.500 248.294 M94.303 264.496 C 94.513 267.890,94.731 268.320,94.762 265.400 C 94.776 264.080,94.644 262.773,94.468 262.496 C 94.292 262.220,94.218 263.120,94.303 264.496 M100.649 262.615 C 100.512 262.973,100.424 263.926,100.453 264.733 C 100.501 266.044,100.538 265.987,100.795 264.200 C 101.103 262.071,101.055 261.558,100.649 262.615 M246.200 263.200 C 246.200 263.818,246.335 264.240,246.500 264.138 C 246.665 264.036,246.800 263.614,246.800 263.200 C 246.800 262.786,246.665 262.364,246.500 262.262 C 246.335 262.160,246.200 262.582,246.200 263.200 M137.883 262.660 C 138.676 262.832,138.781 263.144,138.913 265.726 L 139.061 268.600 139.030 265.600 C 139.001 262.693,138.969 262.598,138.000 262.534 C 137.152 262.479,137.134 262.498,137.883 262.660 M140.158 262.966 C 140.038 263.278,140.017 264.043,140.110 264.666 C 140.256 265.638,140.289 265.589,140.340 264.328 C 140.388 263.143,140.576 262.822,141.300 262.682 L 142.200 262.509 141.287 262.454 C 140.786 262.425,140.277 262.655,140.158 262.966 M253.045 262.728 C 252.933 262.908,253.373 262.977,254.021 262.882 C 254.670 262.787,255.200 262.640,255.200 262.555 C 255.200 262.250,253.243 262.407,253.045 262.728 M289.481 262.660 C 290.225 262.821,290.385 263.173,290.511 264.925 L 290.660 267.000 290.630 264.800 C 290.602 262.746,290.534 262.596,289.600 262.534 C 288.756 262.479,288.738 262.499,289.481 262.660 M291.867 262.667 C 291.720 262.813,291.603 263.128,291.606 263.367 C 291.610 263.660,291.707 263.653,291.906 263.346 C 292.068 263.097,292.560 262.803,293.000 262.693 C 293.774 262.499,293.773 262.491,292.967 262.446 C 292.508 262.421,292.013 262.520,291.867 262.667 M302.999 262.680 C 303.658 262.786,304.347 263.081,304.529 263.336 C 304.753 263.649,304.809 263.605,304.700 263.200 C 304.600 262.831,304.012 262.578,303.169 262.544 C 301.915 262.492,301.901 262.503,302.999 262.680 M215.595 265.482 C 215.488 267.067,215.544 268.219,215.721 268.041 C 215.897 267.864,215.985 266.567,215.916 265.159 L 215.791 262.600 215.595 265.482 M107.728 266.000 C 107.728 267.430,107.801 268.015,107.889 267.300 C 107.978 266.585,107.978 265.415,107.889 264.700 C 107.801 263.985,107.728 264.570,107.728 266.000 M175.701 267.000 C 175.705 267.880,175.787 268.193,175.883 267.695 C 175.979 267.198,175.975 266.478,175.875 266.095 C 175.775 265.713,175.696 266.120,175.701 267.000 M302.000 265.755 C 302.000 265.840,302.530 265.987,303.179 266.082 C 303.827 266.177,304.267 266.108,304.155 265.928 C 303.957 265.607,302.000 265.450,302.000 265.755 M302.700 268.682 C 303.195 268.778,304.005 268.778,304.500 268.682 C 304.995 268.587,304.590 268.509,303.600 268.509 C 302.610 268.509,302.205 268.587,302.700 268.682 " stroke="none" fill="#000000" fill-rule="evenodd" data-index="3"></path><path id="path4" d="M188.020 142.700 C 186.862 145.945,185.729 148.716,185.503 148.857 C 185.267 149.004,185.467 149.315,185.972 149.585 C 186.944 150.105,188.000 149.573,188.000 148.562 C 188.000 148.264,189.311 147.185,190.913 146.164 C 193.652 144.418,196.964 138.830,195.894 137.761 C 195.712 137.579,191.417 136.807,190.563 136.802 C 190.322 136.801,189.178 139.455,188.020 142.700 M191.637 148.377 C 191.331 148.566,191.230 148.925,191.404 149.207 C 191.634 149.578,191.807 149.531,192.092 149.021 C 192.555 148.194,192.366 147.927,191.637 148.377 M249.084 211.484 C 249.391 211.701,249.620 213.296,249.708 215.814 L 249.848 219.800 249.824 215.632 C 249.805 212.281,249.682 211.433,249.200 211.302 C 248.772 211.186,248.739 211.238,249.084 211.484 M141.700 212.294 C 142.745 212.376,144.455 212.376,145.500 212.294 C 146.545 212.212,145.690 212.144,143.600 212.144 C 141.510 212.144,140.655 212.212,141.700 212.294 M174.112 212.295 C 175.164 212.377,176.784 212.376,177.712 212.292 C 178.640 212.208,177.780 212.141,175.800 212.142 C 173.820 212.143,173.060 212.212,174.112 212.295 M293.100 212.289 C 293.815 212.378,294.985 212.378,295.700 212.289 C 296.415 212.201,295.830 212.128,294.400 212.128 C 292.970 212.128,292.385 212.201,293.100 212.289 M104.705 215.083 C 105.202 215.179,105.922 215.175,106.305 215.075 C 106.687 214.975,106.280 214.896,105.400 214.901 C 104.520 214.905,104.207 214.987,104.705 215.083 M268.500 215.076 C 268.885 215.176,269.515 215.176,269.900 215.076 C 270.285 214.975,269.970 214.893,269.200 214.893 C 268.430 214.893,268.115 214.975,268.500 215.076 M215.734 219.600 C 215.734 221.250,215.805 221.925,215.891 221.100 C 215.978 220.275,215.978 218.925,215.891 218.100 C 215.805 217.275,215.734 217.950,215.734 219.600 M296.977 228.600 C 296.977 234.980,297.032 237.534,297.099 234.276 C 297.167 231.017,297.166 225.797,297.099 222.676 C 297.031 219.554,296.976 222.220,296.977 228.600 M42.578 229.600 C 42.578 236.310,42.632 239.055,42.699 235.700 C 42.766 232.345,42.766 226.855,42.699 223.500 C 42.632 220.145,42.578 222.890,42.578 229.600 M139.778 230.400 C 139.778 237.330,139.833 240.165,139.899 236.700 C 139.966 233.235,139.966 227.565,139.899 224.100 C 139.833 220.635,139.778 223.470,139.778 230.400 M262.114 220.200 C 262.117 221.300,262.195 221.703,262.287 221.095 C 262.379 220.486,262.377 219.586,262.282 219.095 C 262.187 218.603,262.111 219.100,262.114 220.200 M64.093 220.400 C 64.093 221.170,64.175 221.485,64.276 221.100 C 64.376 220.715,64.376 220.085,64.276 219.700 C 64.175 219.315,64.093 219.630,64.093 220.400 M144.959 225.200 C 144.959 228.390,145.021 229.695,145.097 228.100 C 145.173 226.505,145.173 223.895,145.097 222.300 C 145.021 220.705,144.959 222.010,144.959 225.200 M330.574 230.000 C 330.574 235.610,330.630 237.905,330.699 235.100 C 330.768 232.295,330.768 227.705,330.699 224.900 C 330.630 222.095,330.574 224.390,330.574 230.000 M103.778 224.200 L 103.800 227.800 106.102 227.833 L 108.404 227.866 106.217 227.713 L 104.030 227.561 103.892 224.080 L 103.755 220.600 103.778 224.200 M291.773 230.000 C 291.773 235.390,291.830 237.595,291.899 234.900 C 291.968 232.205,291.968 227.795,291.899 225.100 C 291.830 222.405,291.773 224.610,291.773 230.000 M335.772 230.200 C 335.772 235.260,335.829 237.275,335.899 234.677 C 335.969 232.080,335.968 227.940,335.898 225.477 C 335.828 223.015,335.771 225.140,335.772 230.200 M268.707 227.890 C 269.426 227.979,270.506 227.977,271.107 227.886 C 271.708 227.795,271.120 227.722,269.800 227.724 C 268.480 227.726,267.988 227.801,268.707 227.890 M107.700 230.676 C 108.085 230.776,108.715 230.776,109.100 230.676 C 109.485 230.575,109.170 230.493,108.400 230.493 C 107.630 230.493,107.315 230.575,107.700 230.676 M271.300 230.676 C 271.685 230.776,272.315 230.776,272.700 230.676 C 273.085 230.575,272.770 230.493,272.000 230.493 C 271.230 230.493,270.915 230.575,271.300 230.676 M103.737 233.800 C 103.739 235.560,103.809 236.230,103.893 235.289 C 103.978 234.349,103.977 232.909,103.891 232.089 C 103.805 231.270,103.736 232.040,103.737 233.800 M144.972 233.728 C 144.861 234.019,144.823 236.044,144.888 238.228 L 145.006 242.200 145.203 237.699 C 145.398 233.245,145.366 232.701,144.972 233.728 M148.505 233.887 C 149.114 233.979,150.014 233.977,150.505 233.882 C 150.997 233.787,150.500 233.711,149.400 233.714 C 148.300 233.717,147.897 233.795,148.505 233.887 M262.109 240.000 C 262.109 240.990,262.187 241.395,262.282 240.900 C 262.378 240.405,262.378 239.595,262.282 239.100 C 262.187 238.605,262.109 239.010,262.109 240.000 M347.701 246.600 C 347.705 247.480,347.787 247.793,347.883 247.295 C 347.979 246.798,347.975 246.078,347.875 245.695 C 347.775 245.313,347.696 245.720,347.701 246.600 M70.159 262.334 C 70.399 262.721,71.853 262.680,72.259 262.275 C 72.410 262.124,71.953 262.000,71.243 262.000 C 70.533 262.000,70.046 262.150,70.159 262.334 M74.000 262.153 C 74.000 262.508,75.618 262.694,75.823 262.362 C 75.946 262.163,75.587 262.000,75.024 262.000 C 74.461 262.000,74.000 262.069,74.000 262.153 M172.900 262.276 C 173.285 262.376,173.915 262.376,174.300 262.276 C 174.685 262.175,174.370 262.093,173.600 262.093 C 172.830 262.093,172.515 262.175,172.900 262.276 M225.038 262.339 C 224.923 262.525,224.857 263.920,224.892 265.439 C 224.927 266.957,225.021 267.716,225.102 267.125 C 225.182 266.533,225.552 265.969,225.924 265.871 C 226.538 265.709,226.536 265.689,225.900 265.646 C 224.733 265.569,224.915 262.511,226.100 262.282 C 227.000 262.109,227.000 262.109,226.124 262.054 C 225.642 262.025,225.153 262.152,225.038 262.339 M304.406 262.300 C 304.424 263.177,305.188 263.759,305.194 262.900 C 305.197 262.405,305.020 262.000,304.800 262.000 C 304.580 262.000,304.403 262.135,304.406 262.300 M324.159 262.334 C 324.399 262.721,325.853 262.680,326.259 262.275 C 326.410 262.124,325.953 262.000,325.243 262.000 C 324.533 262.000,324.046 262.150,324.159 262.334 M328.000 262.153 C 328.000 262.508,329.618 262.694,329.823 262.362 C 329.946 262.163,329.587 262.000,329.024 262.000 C 328.461 262.000,328.000 262.069,328.000 262.153 M210.928 265.200 C 210.928 266.630,211.001 267.215,211.089 266.500 C 211.178 265.785,211.178 264.615,211.089 263.900 C 211.001 263.185,210.928 263.770,210.928 265.200 M265.737 265.800 C 265.739 267.560,265.809 268.230,265.893 267.289 C 265.978 266.349,265.977 264.909,265.891 264.089 C 265.805 263.270,265.736 264.040,265.737 265.800 M266.541 265.000 C 266.545 266.320,266.616 267.096,266.699 266.725 C 266.782 266.353,267.153 265.969,267.525 265.871 C 268.158 265.704,268.158 265.690,267.524 265.646 C 267.049 265.614,266.802 265.154,266.691 264.100 C 266.602 263.247,266.537 263.635,266.541 265.000 M224.134 266.000 C 224.134 267.650,224.205 268.325,224.291 267.500 C 224.378 266.675,224.378 265.325,224.291 264.500 C 224.205 263.675,224.134 264.350,224.134 266.000 M211.693 266.000 C 211.693 266.770,211.775 267.085,211.876 266.700 C 211.976 266.315,211.976 265.685,211.876 265.300 C 211.775 264.915,211.693 265.230,211.693 266.000 M255.309 266.800 C 255.309 267.790,255.387 268.195,255.482 267.700 C 255.578 267.205,255.578 266.395,255.482 265.900 C 255.387 265.405,255.309 265.810,255.309 266.800 M72.501 267.400 C 72.505 268.280,72.587 268.593,72.683 268.095 C 72.779 267.598,72.775 266.878,72.675 266.495 C 72.575 266.113,72.496 266.520,72.501 267.400 M278.800 266.155 C 278.800 266.240,279.330 266.387,279.979 266.482 C 280.627 266.577,281.067 266.508,280.955 266.328 C 280.757 266.007,278.800 265.850,278.800 266.155 " stroke="none" fill="#000000" fill-rule="evenodd" data-index="4"></path></g></svg>