<svg xmlns="http://www.w3.org/2000/svg" xmlns:xlink="http://www.w3.org/1999/xlink" width="500" zoomAndPan="magnify" viewBox="0 0 375 374.999991" height="500" preserveAspectRatio="xMidYMid meet" version="1.2"><defs><clipPath id="abff7d51e5"><path d="M 190 108 L 229.894531 108 L 229.894531 148 L 190 148 Z M 190 108 "/></clipPath><clipPath id="9c8d4830bb"><path d="M 148 174 L 212 174 L 212 227.722656 L 148 227.722656 Z M 148 174 "/></clipPath><clipPath id="f5b16e20a2"><path d="M 130.144531 98 L 157 98 L 157 157 L 130.144531 157 Z M 130.144531 98 "/></clipPath><clipPath id="7e8687a4a5"><path d="M 196 141 L 229.894531 141 L 229.894531 173 L 196 173 Z M 196 141 "/></clipPath><clipPath id="0063656b3b"><path d="M 151 96.472656 L 188 96.472656 L 188 135 L 151 135 Z M 151 96.472656 "/></clipPath><clipPath id="8c5aba09c5"><path d="M 130.144531 131 L 175 131 L 175 197 L 130.144531 197 Z M 130.144531 131 "/></clipPath><clipPath id="5c9f52f38a"><rect x="0" width="82" y="0" height="9"/></clipPath></defs><g id="b9fa3b7336"><path style=" stroke:none;fill-rule:nonzero;fill:#000000;fill-opacity:1;" d="M 176.085938 136.152344 L 148.417969 196.585938 L 200.84375 172.917969 L 194.691406 140.789062 L 176.085938 136.152344 "/><path style=" stroke:none;fill-rule:nonzero;fill:#000000;fill-opacity:1;" d="M 176.710938 134.792969 L 194.386719 139.195312 L 188.582031 108.867188 Z M 176.710938 134.792969 "/><path style=" stroke:none;fill-rule:nonzero;fill:#3b2f2f;fill-opacity:1;" d="M 211.585938 221.210938 L 211.585938 169.683594 L 202.507812 173.78125 Z M 211.585938 221.210938 "/><g clip-rule="nonzero" clip-path="url(#abff7d51e5)"><path style=" stroke:none;fill-rule:nonzero;fill:#000000;fill-opacity:1;" d="M 190.042969 108.679688 L 195.960938 139.585938 L 229.238281 147.875 Z M 190.042969 108.679688 "/></g><g clip-rule="nonzero" clip-path="url(#9c8d4830bb)"><path style=" stroke:none;fill-rule:nonzero;fill:#000000;fill-opacity:1;" d="M 148.6875 198.082031 L 211.328125 227.679688 L 201.128906 174.402344 Z M 148.6875 198.082031 "/></g><g clip-rule="nonzero" clip-path="url(#f5b16e20a2)"><path style=" stroke:none;fill-rule:nonzero;fill:#3b2f2f;fill-opacity:1;" d="M 130.949219 156.175781 L 156.617188 130.503906 L 150.074219 98.289062 Z M 130.949219 156.175781 "/></g><g clip-rule="nonzero" clip-path="url(#7e8687a4a5)"><path style=" stroke:none;fill-rule:nonzero;fill:#3b2f2f;fill-opacity:1;" d="M 196.265625 141.179688 L 202.222656 172.296875 L 211.898438 167.929688 L 230.195312 149.628906 L 196.265625 141.179688 "/></g><g clip-rule="nonzero" clip-path="url(#0063656b3b)"><path style=" stroke:none;fill-rule:nonzero;fill:#000000;fill-opacity:1;" d="M 175.257812 134.429688 L 187.84375 106.9375 L 151.207031 96.472656 L 158.046875 130.144531 L 175.257812 134.429688 "/></g><g clip-rule="nonzero" clip-path="url(#8c5aba09c5)"><path style=" stroke:none;fill-rule:nonzero;fill:#3b2f2f;fill-opacity:1;" d="M 174.636719 135.792969 L 157.644531 131.558594 L 130.15625 159.046875 L 146.941406 196.285156 L 174.636719 135.792969 "/></g><g style="fill:#000000;fill-opacity:1;"><g transform="translate(92.812498, 250.625096)"><path style="stroke:none" d="M 6.75 0.296875 C 5.84375 0.296875 5.015625 0.160156 4.265625 -0.109375 C 3.515625 -0.390625 2.867188 -0.785156 2.328125 -1.296875 C 1.796875 -1.816406 1.382812 -2.441406 1.09375 -3.171875 C 0.800781 -3.898438 0.65625 -4.71875 0.65625 -5.625 C 0.65625 -6.53125 0.800781 -7.347656 1.09375 -8.078125 C 1.382812 -8.804688 1.796875 -9.425781 2.328125 -9.9375 C 2.867188 -10.457031 3.515625 -10.851562 4.265625 -11.125 C 5.015625 -11.40625 5.84375 -11.546875 6.75 -11.546875 C 7.8125 -11.546875 8.765625 -11.359375 9.609375 -10.984375 C 10.453125 -10.609375 11.144531 -10.085938 11.6875 -9.421875 C 11.8125 -9.273438 11.785156 -9.140625 11.609375 -9.015625 L 9.625 -7.703125 C 9.476562 -7.585938 9.347656 -7.609375 9.234375 -7.765625 C 8.953125 -8.109375 8.597656 -8.375 8.171875 -8.5625 C 7.753906 -8.75 7.28125 -8.84375 6.75 -8.84375 C 6.132812 -8.84375 5.59375 -8.710938 5.125 -8.453125 C 4.664062 -8.191406 4.304688 -7.820312 4.046875 -7.34375 C 3.785156 -6.863281 3.65625 -6.289062 3.65625 -5.625 C 3.65625 -4.925781 3.785156 -4.320312 4.046875 -3.8125 C 4.304688 -3.3125 4.664062 -2.925781 5.125 -2.65625 C 5.59375 -2.382812 6.132812 -2.25 6.75 -2.25 C 7.25 -2.25 7.703125 -2.335938 8.109375 -2.515625 C 8.515625 -2.691406 8.851562 -2.9375 9.125 -3.25 L 9.125 -3.875 L 7.140625 -3.875 C 6.941406 -3.875 6.84375 -3.972656 6.84375 -4.171875 L 6.84375 -5.96875 C 6.84375 -6.164062 6.941406 -6.265625 7.140625 -6.265625 L 11.546875 -6.265625 C 11.742188 -6.265625 11.84375 -6.164062 11.84375 -5.96875 L 11.84375 -2.265625 C 11.84375 -2.128906 11.8125 -2.019531 11.75 -1.9375 C 11.226562 -1.226562 10.535156 -0.675781 9.671875 -0.28125 C 8.816406 0.101562 7.84375 0.296875 6.75 0.296875 Z M 6.75 0.296875 "/></g><g transform="translate(105.505369, 250.625096)"><path style="stroke:none" d="M 6.75 0.296875 C 5.84375 0.296875 5.015625 0.160156 4.265625 -0.109375 C 3.515625 -0.390625 2.867188 -0.785156 2.328125 -1.296875 C 1.796875 -1.816406 1.382812 -2.441406 1.09375 -3.171875 C 0.800781 -3.898438 0.65625 -4.71875 0.65625 -5.625 C 0.65625 -6.53125 0.800781 -7.347656 1.09375 -8.078125 C 1.382812 -8.804688 1.796875 -9.425781 2.328125 -9.9375 C 2.867188 -10.457031 3.515625 -10.851562 4.265625 -11.125 C 5.015625 -11.40625 5.84375 -11.546875 6.75 -11.546875 C 7.664062 -11.546875 8.5 -11.40625 9.25 -11.125 C 10 -10.851562 10.644531 -10.457031 11.1875 -9.9375 C 11.726562 -9.425781 12.144531 -8.804688 12.4375 -8.078125 C 12.726562 -7.347656 12.875 -6.53125 12.875 -5.625 C 12.875 -4.71875 12.726562 -3.898438 12.4375 -3.171875 C 12.144531 -2.441406 11.726562 -1.816406 11.1875 -1.296875 C 10.644531 -0.785156 10 -0.390625 9.25 -0.109375 C 8.5 0.160156 7.664062 0.296875 6.75 0.296875 Z M 6.75 -2.40625 C 7.375 -2.40625 7.921875 -2.535156 8.390625 -2.796875 C 8.859375 -3.054688 9.222656 -3.425781 9.484375 -3.90625 C 9.742188 -4.382812 9.875 -4.957031 9.875 -5.625 C 9.875 -6.289062 9.742188 -6.863281 9.484375 -7.34375 C 9.222656 -7.820312 8.859375 -8.191406 8.390625 -8.453125 C 7.921875 -8.710938 7.375 -8.84375 6.75 -8.84375 C 6.132812 -8.84375 5.59375 -8.710938 5.125 -8.453125 C 4.664062 -8.191406 4.304688 -7.820312 4.046875 -7.34375 C 3.785156 -6.863281 3.65625 -6.289062 3.65625 -5.625 C 3.65625 -4.957031 3.785156 -4.382812 4.046875 -3.90625 C 4.304688 -3.425781 4.664062 -3.054688 5.125 -2.796875 C 5.59375 -2.535156 6.132812 -2.40625 6.75 -2.40625 Z M 6.75 -2.40625 "/></g><g transform="translate(119.047848, 250.625096)"><path style="stroke:none" d="M 13.90625 -11.25 L 16.546875 -11.25 C 16.640625 -11.25 16.710938 -11.210938 16.765625 -11.140625 C 16.828125 -11.078125 16.828125 -10.992188 16.765625 -10.890625 L 11.609375 0 C 11.492188 0.226562 11.351562 0.34375 11.1875 0.34375 C 11.03125 0.34375 10.898438 0.226562 10.796875 0 L 8.5 -5.5 L 6.21875 0 C 6.113281 0.226562 5.976562 0.34375 5.8125 0.34375 C 5.644531 0.34375 5.503906 0.226562 5.390625 0 L 0.234375 -10.890625 C 0.179688 -10.992188 0.175781 -11.078125 0.21875 -11.140625 C 0.269531 -11.210938 0.351562 -11.25 0.46875 -11.25 L 3.109375 -11.25 C 3.179688 -11.25 3.25 -11.226562 3.3125 -11.1875 C 3.375 -11.144531 3.421875 -11.085938 3.453125 -11.015625 L 5.796875 -5.578125 L 8.09375 -11.15625 C 8.125 -11.226562 8.164062 -11.285156 8.21875 -11.328125 C 8.28125 -11.367188 8.351562 -11.390625 8.4375 -11.390625 C 8.601562 -11.390625 8.722656 -11.3125 8.796875 -11.15625 L 11.203125 -5.578125 L 13.5625 -11.015625 C 13.625 -11.171875 13.738281 -11.25 13.90625 -11.25 Z M 13.90625 -11.25 "/></g><g transform="translate(136.054683, 250.625096)"><path style="stroke:none" d="M 6.203125 -11.25 L 11.359375 -0.359375 C 11.398438 -0.253906 11.398438 -0.164062 11.359375 -0.09375 C 11.316406 -0.03125 11.242188 0 11.140625 0 L 8.484375 0 C 8.316406 0 8.203125 -0.078125 8.140625 -0.234375 L 7.78125 -1.1875 L 3.796875 -1.1875 L 3.4375 -0.234375 C 3.375 -0.078125 3.257812 0 3.09375 0 L 0.453125 0 C 0.335938 0 0.257812 -0.03125 0.21875 -0.09375 C 0.175781 -0.164062 0.179688 -0.253906 0.234375 -0.359375 L 5.390625 -11.25 C 5.492188 -11.476562 5.625 -11.59375 5.78125 -11.59375 C 5.945312 -11.59375 6.085938 -11.476562 6.203125 -11.25 Z M 5.796875 -6.265625 L 4.6875 -3.4375 L 6.90625 -3.4375 Z M 5.796875 -6.265625 "/></g><g transform="translate(147.648921, 250.625096)"><path style="stroke:none" d="M 3.828125 0 L 1.40625 0 C 1.207031 0 1.109375 -0.0976562 1.109375 -0.296875 L 1.109375 -10.953125 C 1.109375 -11.148438 1.207031 -11.25 1.40625 -11.25 L 6.09375 -11.25 C 6.71875 -11.25 7.257812 -11.1875 7.71875 -11.0625 C 8.1875 -10.9375 8.570312 -10.757812 8.875 -10.53125 C 9.1875 -10.3125 9.429688 -10.046875 9.609375 -9.734375 C 9.796875 -9.429688 9.925781 -9.097656 10 -8.734375 C 10.082031 -8.378906 10.125 -8.007812 10.125 -7.625 C 10.125 -6.851562 9.984375 -6.179688 9.703125 -5.609375 C 9.429688 -5.046875 9.035156 -4.609375 8.515625 -4.296875 C 8.003906 -3.992188 7.394531 -3.84375 6.6875 -3.84375 L 4.125 -3.84375 L 4.125 -0.296875 C 4.125 -0.0976562 4.023438 0 3.828125 0 Z M 4.125 -8.703125 L 4.125 -6.390625 L 5.5625 -6.390625 C 5.644531 -6.390625 5.75 -6.390625 5.875 -6.390625 C 6.007812 -6.398438 6.148438 -6.421875 6.296875 -6.453125 C 6.441406 -6.492188 6.578125 -6.554688 6.703125 -6.640625 C 6.828125 -6.734375 6.925781 -6.851562 7 -7 C 7.082031 -7.15625 7.125 -7.359375 7.125 -7.609375 C 7.125 -7.878906 7.070312 -8.085938 6.96875 -8.234375 C 6.863281 -8.390625 6.726562 -8.5 6.5625 -8.5625 C 6.40625 -8.632812 6.238281 -8.675781 6.0625 -8.6875 C 5.882812 -8.695312 5.71875 -8.703125 5.5625 -8.703125 Z M 4.125 -8.703125 "/></g><g transform="translate(158.312982, 250.625096)"><path style="stroke:none" d="M 3.828125 0 L 1.40625 0 C 1.207031 0 1.109375 -0.0976562 1.109375 -0.296875 L 1.109375 -10.953125 C 1.109375 -11.148438 1.207031 -11.25 1.40625 -11.25 L 6.09375 -11.25 C 6.71875 -11.25 7.257812 -11.1875 7.71875 -11.0625 C 8.1875 -10.9375 8.570312 -10.757812 8.875 -10.53125 C 9.1875 -10.3125 9.429688 -10.046875 9.609375 -9.734375 C 9.796875 -9.429688 9.925781 -9.097656 10 -8.734375 C 10.082031 -8.378906 10.125 -8.007812 10.125 -7.625 C 10.125 -6.851562 9.984375 -6.179688 9.703125 -5.609375 C 9.429688 -5.046875 9.035156 -4.609375 8.515625 -4.296875 C 8.003906 -3.992188 7.394531 -3.84375 6.6875 -3.84375 L 4.125 -3.84375 L 4.125 -0.296875 C 4.125 -0.0976562 4.023438 0 3.828125 0 Z M 4.125 -8.703125 L 4.125 -6.390625 L 5.5625 -6.390625 C 5.644531 -6.390625 5.75 -6.390625 5.875 -6.390625 C 6.007812 -6.398438 6.148438 -6.421875 6.296875 -6.453125 C 6.441406 -6.492188 6.578125 -6.554688 6.703125 -6.640625 C 6.828125 -6.734375 6.925781 -6.851562 7 -7 C 7.082031 -7.15625 7.125 -7.359375 7.125 -7.609375 C 7.125 -7.878906 7.070312 -8.085938 6.96875 -8.234375 C 6.863281 -8.390625 6.726562 -8.5 6.5625 -8.5625 C 6.40625 -8.632812 6.238281 -8.675781 6.0625 -8.6875 C 5.882812 -8.695312 5.71875 -8.703125 5.5625 -8.703125 Z M 4.125 -8.703125 "/></g><g transform="translate(168.977044, 250.625096)"><path style="stroke:none" d="M 3.8125 0 L 1.40625 0 C 1.207031 0 1.109375 -0.0976562 1.109375 -0.296875 L 1.109375 -10.953125 C 1.109375 -11.148438 1.207031 -11.25 1.40625 -11.25 L 3.8125 -11.25 C 4.007812 -11.25 4.109375 -11.148438 4.109375 -10.953125 L 4.109375 -0.296875 C 4.109375 -0.0976562 4.007812 0 3.8125 0 Z M 3.8125 0 "/></g><g transform="translate(174.199212, 250.625096)"><path style="stroke:none" d="M 7.5 0 L 1.40625 0 C 1.207031 0 1.109375 -0.0976562 1.109375 -0.296875 L 1.109375 -10.953125 C 1.109375 -11.148438 1.207031 -11.25 1.40625 -11.25 L 3.8125 -11.25 C 4.007812 -11.25 4.109375 -11.148438 4.109375 -10.953125 L 4.109375 -2.546875 L 7.5 -2.546875 C 7.695312 -2.546875 7.796875 -2.445312 7.796875 -2.25 L 7.796875 -0.296875 C 7.796875 -0.0976562 7.695312 0 7.5 0 Z M 7.5 0 "/></g><g transform="translate(182.314446, 250.625096)"><path style="stroke:none" d="M 7.234375 0 L 4.828125 0 C 4.628906 0 4.53125 -0.0976562 4.53125 -0.296875 L 4.53125 -4.3125 L 0.21875 -10.890625 C 0.144531 -10.984375 0.128906 -11.066406 0.171875 -11.140625 C 0.210938 -11.210938 0.289062 -11.25 0.40625 -11.25 L 3.3125 -11.25 C 3.476562 -11.25 3.597656 -11.175781 3.671875 -11.03125 L 6.046875 -7 L 8.4375 -11.03125 C 8.519531 -11.175781 8.640625 -11.25 8.796875 -11.25 L 11.71875 -11.25 C 11.832031 -11.25 11.910156 -11.210938 11.953125 -11.140625 C 11.992188 -11.066406 11.976562 -10.984375 11.90625 -10.890625 L 7.53125 -4.3125 L 7.53125 -0.296875 C 7.53125 -0.0976562 7.429688 0 7.234375 0 Z M 7.234375 0 "/></g><g transform="translate(194.436027, 250.625096)"><path style="stroke:none" d=""/></g><g transform="translate(199.23339, 250.625096)"><path style="stroke:none" d="M 3.8125 0 L 1.40625 0 C 1.207031 0 1.109375 -0.0976562 1.109375 -0.296875 L 1.109375 -10.953125 C 1.109375 -11.148438 1.207031 -11.25 1.40625 -11.25 L 3.8125 -11.25 C 4.007812 -11.25 4.109375 -11.148438 4.109375 -10.953125 L 4.109375 -0.296875 C 4.109375 -0.0976562 4.007812 0 3.8125 0 Z M 3.8125 0 "/></g><g transform="translate(204.455558, 250.625096)"><path style="stroke:none" d="M 3.71875 0 L 1.421875 0 C 1.222656 0 1.125 -0.0976562 1.125 -0.296875 L 1.125 -11 C 1.125 -11.25 1.191406 -11.410156 1.328125 -11.484375 C 1.472656 -11.566406 1.648438 -11.515625 1.859375 -11.328125 L 8.15625 -5.765625 L 8.15625 -10.953125 C 8.15625 -11.148438 8.253906 -11.25 8.453125 -11.25 L 10.75 -11.25 C 10.945312 -11.25 11.046875 -11.148438 11.046875 -10.953125 L 11.046875 -0.265625 C 11.046875 -0.015625 10.96875 0.144531 10.8125 0.21875 C 10.664062 0.289062 10.476562 0.21875 10.25 0 L 4.015625 -5.671875 L 4.015625 -0.296875 C 4.015625 -0.0976562 3.914062 0 3.71875 0 Z M 3.71875 0 "/></g><g transform="translate(216.635733, 250.625096)"><path style="stroke:none" d="M 3.8125 0 L 1.40625 0 C 1.207031 0 1.109375 -0.0976562 1.109375 -0.296875 L 1.109375 -10.953125 C 1.109375 -11.148438 1.207031 -11.25 1.40625 -11.25 L 8.421875 -11.25 C 8.617188 -11.25 8.71875 -11.148438 8.71875 -10.953125 L 8.71875 -9 C 8.71875 -8.800781 8.617188 -8.703125 8.421875 -8.703125 L 4.109375 -8.703125 L 4.109375 -6.265625 L 7.734375 -6.265625 C 7.929688 -6.265625 8.03125 -6.164062 8.03125 -5.96875 L 8.03125 -4.171875 C 8.03125 -3.972656 7.929688 -3.875 7.734375 -3.875 L 4.109375 -3.875 L 4.109375 -0.296875 C 4.109375 -0.0976562 4.007812 0 3.8125 0 Z M 3.8125 0 "/></g><g transform="translate(225.893544, 250.625096)"><path style="stroke:none" d="M 6.75 0.296875 C 5.84375 0.296875 5.015625 0.160156 4.265625 -0.109375 C 3.515625 -0.390625 2.867188 -0.785156 2.328125 -1.296875 C 1.796875 -1.816406 1.382812 -2.441406 1.09375 -3.171875 C 0.800781 -3.898438 0.65625 -4.71875 0.65625 -5.625 C 0.65625 -6.53125 0.800781 -7.347656 1.09375 -8.078125 C 1.382812 -8.804688 1.796875 -9.425781 2.328125 -9.9375 C 2.867188 -10.457031 3.515625 -10.851562 4.265625 -11.125 C 5.015625 -11.40625 5.84375 -11.546875 6.75 -11.546875 C 7.664062 -11.546875 8.5 -11.40625 9.25 -11.125 C 10 -10.851562 10.644531 -10.457031 11.1875 -9.9375 C 11.726562 -9.425781 12.144531 -8.804688 12.4375 -8.078125 C 12.726562 -7.347656 12.875 -6.53125 12.875 -5.625 C 12.875 -4.71875 12.726562 -3.898438 12.4375 -3.171875 C 12.144531 -2.441406 11.726562 -1.816406 11.1875 -1.296875 C 10.644531 -0.785156 10 -0.390625 9.25 -0.109375 C 8.5 0.160156 7.664062 0.296875 6.75 0.296875 Z M 6.75 -2.40625 C 7.375 -2.40625 7.921875 -2.535156 8.390625 -2.796875 C 8.859375 -3.054688 9.222656 -3.425781 9.484375 -3.90625 C 9.742188 -4.382812 9.875 -4.957031 9.875 -5.625 C 9.875 -6.289062 9.742188 -6.863281 9.484375 -7.34375 C 9.222656 -7.820312 8.859375 -8.191406 8.390625 -8.453125 C 7.921875 -8.710938 7.375 -8.84375 6.75 -8.84375 C 6.132812 -8.84375 5.59375 -8.710938 5.125 -8.453125 C 4.664062 -8.191406 4.304688 -7.820312 4.046875 -7.34375 C 3.785156 -6.863281 3.65625 -6.289062 3.65625 -5.625 C 3.65625 -4.957031 3.785156 -4.382812 4.046875 -3.90625 C 4.304688 -3.425781 4.664062 -3.054688 5.125 -2.796875 C 5.59375 -2.535156 6.132812 -2.40625 6.75 -2.40625 Z M 6.75 -2.40625 "/></g><g transform="translate(239.436024, 250.625096)"><path style="stroke:none" d="M 5.578125 0 L 3.171875 0 C 2.960938 0 2.859375 -0.0976562 2.859375 -0.296875 L 2.859375 -8.703125 L 0.59375 -8.703125 C 0.394531 -8.703125 0.296875 -8.800781 0.296875 -9 L 0.296875 -10.953125 C 0.296875 -11.148438 0.394531 -11.25 0.59375 -11.25 L 8.140625 -11.25 C 8.335938 -11.25 8.4375 -11.148438 8.4375 -10.953125 L 8.4375 -9 C 8.4375 -8.800781 8.335938 -8.703125 8.140625 -8.703125 L 5.875 -8.703125 L 5.875 -0.296875 C 5.875 -0.0976562 5.773438 0 5.578125 0 Z M 5.578125 0 "/></g><g transform="translate(248.195789, 250.625096)"><path style="stroke:none" d="M 8.421875 0 L 1.40625 0 C 1.207031 0 1.109375 -0.0976562 1.109375 -0.296875 L 1.109375 -10.953125 C 1.109375 -11.148438 1.207031 -11.25 1.40625 -11.25 L 8.421875 -11.25 C 8.617188 -11.25 8.71875 -11.148438 8.71875 -10.953125 L 8.71875 -9 C 8.71875 -8.800781 8.617188 -8.703125 8.421875 -8.703125 L 4.109375 -8.703125 L 4.109375 -6.265625 L 7.828125 -6.265625 C 8.023438 -6.265625 8.125 -6.164062 8.125 -5.96875 L 8.125 -4.171875 C 8.125 -3.972656 8.023438 -3.875 7.828125 -3.875 L 4.109375 -3.875 L 4.109375 -2.546875 L 8.421875 -2.546875 C 8.617188 -2.546875 8.71875 -2.445312 8.71875 -2.25 L 8.71875 -0.296875 C 8.71875 -0.0976562 8.617188 0 8.421875 0 Z M 8.421875 0 "/></g><g transform="translate(257.768542, 250.625096)"><path style="stroke:none" d="M 6.75 0.296875 C 5.84375 0.296875 5.015625 0.160156 4.265625 -0.109375 C 3.515625 -0.390625 2.867188 -0.785156 2.328125 -1.296875 C 1.796875 -1.816406 1.382812 -2.441406 1.09375 -3.171875 C 0.800781 -3.898438 0.65625 -4.71875 0.65625 -5.625 C 0.65625 -6.53125 0.800781 -7.347656 1.09375 -8.078125 C 1.382812 -8.804688 1.796875 -9.425781 2.328125 -9.9375 C 2.867188 -10.457031 3.515625 -10.851562 4.265625 -11.125 C 5.015625 -11.40625 5.84375 -11.546875 6.75 -11.546875 C 7.8125 -11.546875 8.765625 -11.359375 9.609375 -10.984375 C 10.453125 -10.609375 11.144531 -10.085938 11.6875 -9.421875 C 11.8125 -9.273438 11.785156 -9.140625 11.609375 -9.015625 L 9.625 -7.703125 C 9.476562 -7.585938 9.347656 -7.609375 9.234375 -7.765625 C 8.953125 -8.109375 8.597656 -8.375 8.171875 -8.5625 C 7.753906 -8.75 7.28125 -8.84375 6.75 -8.84375 C 6.132812 -8.84375 5.59375 -8.710938 5.125 -8.453125 C 4.664062 -8.191406 4.304688 -7.820312 4.046875 -7.34375 C 3.785156 -6.863281 3.65625 -6.289062 3.65625 -5.625 C 3.65625 -4.957031 3.785156 -4.382812 4.046875 -3.90625 C 4.304688 -3.425781 4.664062 -3.054688 5.125 -2.796875 C 5.59375 -2.535156 6.132812 -2.40625 6.75 -2.40625 C 7.28125 -2.40625 7.753906 -2.5 8.171875 -2.6875 C 8.597656 -2.875 8.953125 -3.140625 9.234375 -3.484375 C 9.347656 -3.640625 9.476562 -3.660156 9.625 -3.546875 L 11.609375 -2.234375 C 11.785156 -2.109375 11.820312 -1.984375 11.71875 -1.859375 C 11.175781 -1.179688 10.484375 -0.648438 9.640625 -0.265625 C 8.796875 0.109375 7.832031 0.296875 6.75 0.296875 Z M 6.75 0.296875 "/></g><g transform="translate(270.02196, 250.625096)"><path style="stroke:none" d="M 3.8125 0 L 1.40625 0 C 1.207031 0 1.109375 -0.0976562 1.109375 -0.296875 L 1.109375 -10.953125 C 1.109375 -11.148438 1.207031 -11.25 1.40625 -11.25 L 3.8125 -11.25 C 4.007812 -11.25 4.109375 -11.148438 4.109375 -10.953125 L 4.109375 -6.34375 L 8.046875 -6.34375 L 8.046875 -10.953125 C 8.046875 -11.148438 8.144531 -11.25 8.34375 -11.25 L 10.734375 -11.25 C 10.929688 -11.25 11.03125 -11.148438 11.03125 -10.953125 L 11.03125 -0.296875 C 11.03125 -0.0976562 10.929688 0 10.734375 0 L 8.34375 0 C 8.144531 0 8.046875 -0.0976562 8.046875 -0.296875 L 8.046875 -3.796875 L 4.109375 -3.796875 L 4.109375 -0.296875 C 4.109375 -0.0976562 4.007812 0 3.8125 0 Z M 3.8125 0 "/></g></g><g transform="matrix(1,0,0,1,140,253)"><g clip-path="url(#5c9f52f38a)"><g style="fill:#002366;fill-opacity:1;"><g transform="translate(1.172393, 6.041757)"><path style="stroke:none" d="M 2.125 0.0625 C 1.769531 0.0625 1.457031 -0.0078125 1.1875 -0.15625 C 0.914062 -0.3125 0.703125 -0.523438 0.546875 -0.796875 C 0.390625 -1.078125 0.3125 -1.394531 0.3125 -1.75 C 0.3125 -2.101562 0.390625 -2.414062 0.546875 -2.6875 C 0.703125 -2.96875 0.914062 -3.179688 1.1875 -3.328125 C 1.457031 -3.484375 1.769531 -3.5625 2.125 -3.5625 C 2.476562 -3.5625 2.789062 -3.484375 3.0625 -3.328125 C 3.332031 -3.179688 3.546875 -2.96875 3.703125 -2.6875 C 3.859375 -2.414062 3.9375 -2.101562 3.9375 -1.75 C 3.9375 -1.394531 3.859375 -1.078125 3.703125 -0.796875 C 3.546875 -0.523438 3.332031 -0.3125 3.0625 -0.15625 C 2.789062 -0.0078125 2.476562 0.0625 2.125 0.0625 Z M 0.625 -1.75 C 0.625 -1.457031 0.6875 -1.195312 0.8125 -0.96875 C 0.945312 -0.738281 1.125 -0.554688 1.34375 -0.421875 C 1.570312 -0.296875 1.832031 -0.234375 2.125 -0.234375 C 2.414062 -0.234375 2.675781 -0.296875 2.90625 -0.421875 C 3.132812 -0.554688 3.3125 -0.738281 3.4375 -0.96875 C 3.5625 -1.195312 3.625 -1.457031 3.625 -1.75 C 3.625 -2.050781 3.5625 -2.3125 3.4375 -2.53125 C 3.3125 -2.757812 3.132812 -2.9375 2.90625 -3.0625 C 2.675781 -3.195312 2.414062 -3.265625 2.125 -3.265625 C 1.832031 -3.265625 1.570312 -3.195312 1.34375 -3.0625 C 1.125 -2.9375 0.945312 -2.757812 0.8125 -2.53125 C 0.6875 -2.3125 0.625 -2.050781 0.625 -1.75 Z M 0.625 -1.75 "/></g></g><g style="fill:#002366;fill-opacity:1;"><g transform="translate(6.902418, 6.041757)"><path style="stroke:none" d="M 0.5625 0 L 0.5625 -3.5 L 0.84375 -3.5 L 2.984375 -0.53125 L 2.984375 -3.5 L 3.28125 -3.5 L 3.28125 0 L 3 0 L 0.859375 -2.984375 L 0.859375 0 Z M 0.5625 0 "/></g></g><g style="fill:#002366;fill-opacity:1;"><g transform="translate(12.227436, 6.041757)"><path style="stroke:none" d="M 0.5625 0 L 0.5625 -3.5 L 2.625 -3.5 L 2.625 -3.21875 L 0.875 -3.21875 L 0.875 -1.921875 L 2.5 -1.921875 L 2.5 -1.640625 L 0.875 -1.640625 L 0.875 -0.28125 L 2.6875 -0.28125 L 2.6875 0 Z M 0.5625 0 "/></g></g><g style="fill:#002366;fill-opacity:1;"><g transform="translate(16.752448, 6.041757)"><path style="stroke:none" d=""/></g></g><g style="fill:#002366;fill-opacity:1;"><g transform="translate(19.57245, 6.041757)"><path style="stroke:none" d="M 1.6875 0.0625 C 1.425781 0.0625 1.191406 0.0195312 0.984375 -0.0625 C 0.785156 -0.15625 0.628906 -0.285156 0.515625 -0.453125 C 0.410156 -0.617188 0.351562 -0.816406 0.34375 -1.046875 L 0.65625 -1.046875 C 0.664062 -0.785156 0.765625 -0.582031 0.953125 -0.4375 C 1.140625 -0.289062 1.382812 -0.21875 1.6875 -0.21875 C 1.976562 -0.21875 2.207031 -0.273438 2.375 -0.390625 C 2.539062 -0.515625 2.625 -0.679688 2.625 -0.890625 C 2.625 -1.066406 2.546875 -1.210938 2.390625 -1.328125 C 2.234375 -1.441406 1.976562 -1.539062 1.625 -1.625 C 1.195312 -1.71875 0.882812 -1.84375 0.6875 -2 C 0.5 -2.15625 0.40625 -2.367188 0.40625 -2.640625 C 0.40625 -2.921875 0.507812 -3.144531 0.71875 -3.3125 C 0.9375 -3.476562 1.234375 -3.5625 1.609375 -3.5625 C 1.992188 -3.5625 2.296875 -3.46875 2.515625 -3.28125 C 2.734375 -3.09375 2.851562 -2.832031 2.875 -2.5 L 2.5625 -2.5 C 2.550781 -2.75 2.460938 -2.941406 2.296875 -3.078125 C 2.128906 -3.210938 1.898438 -3.28125 1.609375 -3.28125 C 1.328125 -3.28125 1.101562 -3.21875 0.9375 -3.09375 C 0.78125 -2.976562 0.703125 -2.828125 0.703125 -2.640625 C 0.703125 -2.460938 0.773438 -2.316406 0.921875 -2.203125 C 1.078125 -2.085938 1.335938 -1.988281 1.703125 -1.90625 C 2.148438 -1.800781 2.46875 -1.664062 2.65625 -1.5 C 2.84375 -1.34375 2.9375 -1.140625 2.9375 -0.890625 C 2.9375 -0.597656 2.820312 -0.363281 2.59375 -0.1875 C 2.375 -0.0195312 2.070312 0.0625 1.6875 0.0625 Z M 1.6875 0.0625 "/></g></g><g style="fill:#002366;fill-opacity:1;"><g transform="translate(24.337464, 6.041757)"><path style="stroke:none" d="M 1.390625 0 L 1.390625 -3.203125 L 0.1875 -3.203125 L 0.1875 -3.5 L 2.90625 -3.5 L 2.90625 -3.203125 L 1.6875 -3.203125 L 1.6875 0 Z M 1.390625 0 "/></g></g><g style="fill:#002366;fill-opacity:1;"><g transform="translate(28.912481, 6.041757)"><path style="stroke:none" d="M 2.125 0.0625 C 1.769531 0.0625 1.457031 -0.0078125 1.1875 -0.15625 C 0.914062 -0.3125 0.703125 -0.523438 0.546875 -0.796875 C 0.390625 -1.078125 0.3125 -1.394531 0.3125 -1.75 C 0.3125 -2.101562 0.390625 -2.414062 0.546875 -2.6875 C 0.703125 -2.96875 0.914062 -3.179688 1.1875 -3.328125 C 1.457031 -3.484375 1.769531 -3.5625 2.125 -3.5625 C 2.476562 -3.5625 2.789062 -3.484375 3.0625 -3.328125 C 3.332031 -3.179688 3.546875 -2.96875 3.703125 -2.6875 C 3.859375 -2.414062 3.9375 -2.101562 3.9375 -1.75 C 3.9375 -1.394531 3.859375 -1.078125 3.703125 -0.796875 C 3.546875 -0.523438 3.332031 -0.3125 3.0625 -0.15625 C 2.789062 -0.0078125 2.476562 0.0625 2.125 0.0625 Z M 0.625 -1.75 C 0.625 -1.457031 0.6875 -1.195312 0.8125 -0.96875 C 0.945312 -0.738281 1.125 -0.554688 1.34375 -0.421875 C 1.570312 -0.296875 1.832031 -0.234375 2.125 -0.234375 C 2.414062 -0.234375 2.675781 -0.296875 2.90625 -0.421875 C 3.132812 -0.554688 3.3125 -0.738281 3.4375 -0.96875 C 3.5625 -1.195312 3.625 -1.457031 3.625 -1.75 C 3.625 -2.050781 3.5625 -2.3125 3.4375 -2.53125 C 3.3125 -2.757812 3.132812 -2.9375 2.90625 -3.0625 C 2.675781 -3.195312 2.414062 -3.265625 2.125 -3.265625 C 1.832031 -3.265625 1.570312 -3.195312 1.34375 -3.0625 C 1.125 -2.9375 0.945312 -2.757812 0.8125 -2.53125 C 0.6875 -2.3125 0.625 -2.050781 0.625 -1.75 Z M 0.625 -1.75 "/></g></g><g style="fill:#002366;fill-opacity:1;"><g transform="translate(34.642505, 6.041757)"><path style="stroke:none" d="M 0.5625 0 L 0.5625 -3.5 L 1.671875 -3.5 C 2.078125 -3.5 2.394531 -3.394531 2.625 -3.1875 C 2.851562 -2.988281 2.96875 -2.707031 2.96875 -2.34375 C 2.96875 -1.988281 2.851562 -1.707031 2.625 -1.5 C 2.394531 -1.300781 2.078125 -1.203125 1.671875 -1.203125 L 0.875 -1.203125 L 0.875 0 Z M 0.875 -1.484375 L 1.671875 -1.484375 C 2.328125 -1.484375 2.65625 -1.769531 2.65625 -2.34375 C 2.65625 -2.914062 2.328125 -3.203125 1.671875 -3.203125 L 0.875 -3.203125 Z M 0.875 -1.484375 "/></g></g><g style="fill:#002366;fill-opacity:1;"><g transform="translate(39.322521, 6.041757)"><path style="stroke:none" d=""/></g></g><g style="fill:#002366;fill-opacity:1;"><g transform="translate(42.142523, 6.041757)"><path style="stroke:none" d="M 1.6875 0.0625 C 1.425781 0.0625 1.191406 0.0195312 0.984375 -0.0625 C 0.785156 -0.15625 0.628906 -0.285156 0.515625 -0.453125 C 0.410156 -0.617188 0.351562 -0.816406 0.34375 -1.046875 L 0.65625 -1.046875 C 0.664062 -0.785156 0.765625 -0.582031 0.953125 -0.4375 C 1.140625 -0.289062 1.382812 -0.21875 1.6875 -0.21875 C 1.976562 -0.21875 2.207031 -0.273438 2.375 -0.390625 C 2.539062 -0.515625 2.625 -0.679688 2.625 -0.890625 C 2.625 -1.066406 2.546875 -1.210938 2.390625 -1.328125 C 2.234375 -1.441406 1.976562 -1.539062 1.625 -1.625 C 1.195312 -1.71875 0.882812 -1.84375 0.6875 -2 C 0.5 -2.15625 0.40625 -2.367188 0.40625 -2.640625 C 0.40625 -2.921875 0.507812 -3.144531 0.71875 -3.3125 C 0.9375 -3.476562 1.234375 -3.5625 1.609375 -3.5625 C 1.992188 -3.5625 2.296875 -3.46875 2.515625 -3.28125 C 2.734375 -3.09375 2.851562 -2.832031 2.875 -2.5 L 2.5625 -2.5 C 2.550781 -2.75 2.460938 -2.941406 2.296875 -3.078125 C 2.128906 -3.210938 1.898438 -3.28125 1.609375 -3.28125 C 1.328125 -3.28125 1.101562 -3.21875 0.9375 -3.09375 C 0.78125 -2.976562 0.703125 -2.828125 0.703125 -2.640625 C 0.703125 -2.460938 0.773438 -2.316406 0.921875 -2.203125 C 1.078125 -2.085938 1.335938 -1.988281 1.703125 -1.90625 C 2.148438 -1.800781 2.46875 -1.664062 2.65625 -1.5 C 2.84375 -1.34375 2.9375 -1.140625 2.9375 -0.890625 C 2.9375 -0.597656 2.820312 -0.363281 2.59375 -0.1875 C 2.375 -0.0195312 2.070312 0.0625 1.6875 0.0625 Z M 1.6875 0.0625 "/></g></g><g style="fill:#002366;fill-opacity:1;"><g transform="translate(46.907537, 6.041757)"><path style="stroke:none" d="M 2.125 0.0625 C 1.769531 0.0625 1.457031 -0.0078125 1.1875 -0.15625 C 0.914062 -0.3125 0.703125 -0.523438 0.546875 -0.796875 C 0.390625 -1.078125 0.3125 -1.394531 0.3125 -1.75 C 0.3125 -2.101562 0.390625 -2.414062 0.546875 -2.6875 C 0.703125 -2.96875 0.914062 -3.179688 1.1875 -3.328125 C 1.457031 -3.484375 1.769531 -3.5625 2.125 -3.5625 C 2.476562 -3.5625 2.789062 -3.484375 3.0625 -3.328125 C 3.332031 -3.179688 3.546875 -2.96875 3.703125 -2.6875 C 3.859375 -2.414062 3.9375 -2.101562 3.9375 -1.75 C 3.9375 -1.394531 3.859375 -1.078125 3.703125 -0.796875 C 3.546875 -0.523438 3.332031 -0.3125 3.0625 -0.15625 C 2.789062 -0.0078125 2.476562 0.0625 2.125 0.0625 Z M 0.625 -1.75 C 0.625 -1.457031 0.6875 -1.195312 0.8125 -0.96875 C 0.945312 -0.738281 1.125 -0.554688 1.34375 -0.421875 C 1.570312 -0.296875 1.832031 -0.234375 2.125 -0.234375 C 2.414062 -0.234375 2.675781 -0.296875 2.90625 -0.421875 C 3.132812 -0.554688 3.3125 -0.738281 3.4375 -0.96875 C 3.5625 -1.195312 3.625 -1.457031 3.625 -1.75 C 3.625 -2.050781 3.5625 -2.3125 3.4375 -2.53125 C 3.3125 -2.757812 3.132812 -2.9375 2.90625 -3.0625 C 2.675781 -3.195312 2.414062 -3.265625 2.125 -3.265625 C 1.832031 -3.265625 1.570312 -3.195312 1.34375 -3.0625 C 1.125 -2.9375 0.945312 -2.757812 0.8125 -2.53125 C 0.6875 -2.3125 0.625 -2.050781 0.625 -1.75 Z M 0.625 -1.75 "/></g></g><g style="fill:#002366;fill-opacity:1;"><g transform="translate(52.637561, 6.041757)"><path style="stroke:none" d="M 0.5625 0 L 0.5625 -3.5 L 0.875 -3.5 L 0.875 -0.296875 L 2.640625 -0.296875 L 2.640625 0 Z M 0.5625 0 "/></g></g><g style="fill:#002366;fill-opacity:1;"><g transform="translate(56.932573, 6.041757)"><path style="stroke:none" d="M 1.84375 0.0625 C 1.425781 0.0625 1.097656 -0.0625 0.859375 -0.3125 C 0.628906 -0.570312 0.515625 -0.925781 0.515625 -1.375 L 0.515625 -3.5 L 0.8125 -3.5 L 0.8125 -1.390625 C 0.8125 -1.015625 0.898438 -0.726562 1.078125 -0.53125 C 1.265625 -0.332031 1.519531 -0.234375 1.84375 -0.234375 C 2.164062 -0.234375 2.414062 -0.332031 2.59375 -0.53125 C 2.769531 -0.726562 2.859375 -1.015625 2.859375 -1.390625 L 2.859375 -3.5 L 3.15625 -3.5 L 3.15625 -1.375 C 3.15625 -0.925781 3.035156 -0.570312 2.796875 -0.3125 C 2.566406 -0.0625 2.25 0.0625 1.84375 0.0625 Z M 1.84375 0.0625 "/></g></g><g style="fill:#002366;fill-opacity:1;"><g transform="translate(62.092592, 6.041757)"><path style="stroke:none" d="M 1.390625 0 L 1.390625 -3.203125 L 0.1875 -3.203125 L 0.1875 -3.5 L 2.90625 -3.5 L 2.90625 -3.203125 L 1.6875 -3.203125 L 1.6875 0 Z M 1.390625 0 "/></g></g><g style="fill:#002366;fill-opacity:1;"><g transform="translate(66.667609, 6.041757)"><path style="stroke:none" d="M 0.5625 0 L 0.5625 -3.5 L 0.875 -3.5 L 0.875 0 Z M 0.5625 0 "/></g></g><g style="fill:#002366;fill-opacity:1;"><g transform="translate(69.582616, 6.041757)"><path style="stroke:none" d="M 2.125 0.0625 C 1.769531 0.0625 1.457031 -0.0078125 1.1875 -0.15625 C 0.914062 -0.3125 0.703125 -0.523438 0.546875 -0.796875 C 0.390625 -1.078125 0.3125 -1.394531 0.3125 -1.75 C 0.3125 -2.101562 0.390625 -2.414062 0.546875 -2.6875 C 0.703125 -2.96875 0.914062 -3.179688 1.1875 -3.328125 C 1.457031 -3.484375 1.769531 -3.5625 2.125 -3.5625 C 2.476562 -3.5625 2.789062 -3.484375 3.0625 -3.328125 C 3.332031 -3.179688 3.546875 -2.96875 3.703125 -2.6875 C 3.859375 -2.414062 3.9375 -2.101562 3.9375 -1.75 C 3.9375 -1.394531 3.859375 -1.078125 3.703125 -0.796875 C 3.546875 -0.523438 3.332031 -0.3125 3.0625 -0.15625 C 2.789062 -0.0078125 2.476562 0.0625 2.125 0.0625 Z M 0.625 -1.75 C 0.625 -1.457031 0.6875 -1.195312 0.8125 -0.96875 C 0.945312 -0.738281 1.125 -0.554688 1.34375 -0.421875 C 1.570312 -0.296875 1.832031 -0.234375 2.125 -0.234375 C 2.414062 -0.234375 2.675781 -0.296875 2.90625 -0.421875 C 3.132812 -0.554688 3.3125 -0.738281 3.4375 -0.96875 C 3.5625 -1.195312 3.625 -1.457031 3.625 -1.75 C 3.625 -2.050781 3.5625 -2.3125 3.4375 -2.53125 C 3.3125 -2.757812 3.132812 -2.9375 2.90625 -3.0625 C 2.675781 -3.195312 2.414062 -3.265625 2.125 -3.265625 C 1.832031 -3.265625 1.570312 -3.195312 1.34375 -3.0625 C 1.125 -2.9375 0.945312 -2.757812 0.8125 -2.53125 C 0.6875 -2.3125 0.625 -2.050781 0.625 -1.75 Z M 0.625 -1.75 "/></g></g><g style="fill:#002366;fill-opacity:1;"><g transform="translate(75.31264, 6.041757)"><path style="stroke:none" d="M 0.5625 0 L 0.5625 -3.5 L 0.84375 -3.5 L 2.984375 -0.53125 L 2.984375 -3.5 L 3.28125 -3.5 L 3.28125 0 L 3 0 L 0.859375 -2.984375 L 0.859375 0 Z M 0.5625 0 "/></g></g></g></g></g></svg>